<svg xmlns="http://www.w3.org/2000/svg" width="1328.651" height="718.478" viewBox="0 0 1328.651 718.478">
  <g id="Group_12" data-name="Group 12" transform="translate(788.365 -3094.97)">
    <g id="Group_11" data-name="Group 11">
      <g id="undraw_books_re_8gea_1_" data-name="undraw_books_re_8gea (1)" transform="translate(-351.93 3358.122)">
        <path id="Path_3" data-name="Path 3" d="M151.455,107.121l26.994,36.849s23.014,9.678,49.913,29.109l-6.439,10.051s-44.4-18.18-55.759-25.861l-20.747-32.525,6.038-17.623Z" fill="#a0616a"/>
        <ellipse id="Ellipse_3" data-name="Ellipse 3" cx="8.267" cy="13.924" rx="8.267" ry="13.924" transform="translate(216.847 182.041) rotate(-55.653)" fill="#a0616a"/>
        <path id="Path_4" data-name="Path 4" d="M138.261,75.664l8.834-2.506a9.909,9.909,0,0,1,8.043,5.061c2.9,5.051,23.441,50.085,22.468,51.829s-2.333,2.13-.588,3.1,3.342.48,2.153,1.939.454,4.664.454,4.664l-22.66,16.719-18.7-80.809Z" fill="#f78f02"/>
        <path id="Path_5" data-name="Path 5" d="M103.988,445.968h10.777l5.127-41.57H103.986Z" fill="#a0616a"/>
        <path id="Path_6" data-name="Path 6" d="M140.912,445.724h0a9.254,9.254,0,0,1,.513,3.046h0a3.658,3.658,0,0,1-3.658,3.658H104.391a2.5,2.5,0,0,1-2.5-2.5v-1.39s-1.651-4.176,1.748-9.324c0,0,4.225,4.031,10.538-2.282l1.862-3.372,13.476,9.855,7.469.919c1.634.2,3.083-.031,3.924,1.385Z" fill="#2f2e41"/>
        <path id="Path_7" data-name="Path 7" d="M142.995,435.466l10.628,1.784L165.566,397.1,149.88,394.47Z" fill="#a0616a"/>
        <path id="Path_8" data-name="Path 8" d="M179.449,441.342h0a9.254,9.254,0,0,1,0,3.089h0a3.658,3.658,0,0,1-4.213,3l-32.915-5.53a2.5,2.5,0,0,1-2.047-2.874l.23-1.37s-.936-4.392,3.269-8.905c0,0,3.5,4.675,10.77-.5l2.395-3.017L168.6,437.182l7.214,2.144c1.578.469,3.046.48,3.64,2.015Z" fill="#2f2e41"/>
        <path id="Path_9" data-name="Path 9" d="M165.087,222.162s14.48,16.952,14.48,32.492.353,64.355.353,64.355-8.476,76.207-10.6,82.564-3.179,16.952-3.179,16.952l-20.484-4.944s-2.825-71.693,5.651-88.645l-20.484-57.92-7.063,163.87H99.987S87.743,344.711,94.1,322.108c0,0-14.127-86.173-10.6-91.117s81.582-8.829,81.582-8.829Z" fill="#2f2e41"/>
        <path id="Path_10" data-name="Path 10" d="M112.465,53.348l19.071,1.413,6.357,10.6s14.833,6.357,16.952,15.539,2.825,116.546,2.825,116.546l10.6,15.539-.706,13.42L82.8,230.639v-12.9l-7.77-15.35s8.476-122.9,10.6-123.609,18.365-12.008,18.365-12.008l8.476-13.42Z" fill="#f78f02"/>
        <circle id="Ellipse_4" data-name="Ellipse 4" cx="24.015" cy="24.015" r="24.015" transform="translate(97.08 2.688)" fill="#a0616a"/>
        <path id="Path_11" data-name="Path 11" d="M140.279,7.387A8.443,8.443,0,0,0,131.993,1.9c-.156,0-.311,0-.465,0a34.645,34.645,0,0,1-5.44-1.078,19.547,19.547,0,0,0-10.21.662,9.761,9.761,0,0,1-3.1.788,2.506,2.506,0,0,1-2.5-1.628q-.093,1.413-.186,2.826l-1.047-2.287-.7,3.04L106.1,1.678a3.269,3.269,0,0,1-1.337,2.965A12.316,12.316,0,0,1,101.74,6.2c-4.517,1.925-8.758,5.334-10.06,10.069-.822,2.991-.392,6.166.044,9.237.385,2.715.8,5.524,2.28,7.836.946,1.482,2.31,2.729,2.886,4.39.537,1.548.334,3.321,1.1,4.771a6.73,6.73,0,0,0,3.9,2.833,17.583,17.583,0,0,1,4.533,1.908c1.335.963,2.884,3.737,5.793,3.588l.939-1.764c.966-.787-2.608-.163-2.645-1.408s4.3-2.014,3.685-3.1c-.943-1.661-2.218-3.107-3.28-4.695-1.242-1.857-2.219-4.026-1.791-6.292a4.578,4.578,0,0,1,1.208-2.355c1.812-1.846,3.832-1.035,5.795-.771,1.353.182,2.969-.028,3.672-1.2.822-1.37-.094-3.112.018-4.705a5.766,5.766,0,0,1,2.79-4.035,38.308,38.308,0,0,0,4.225-2.8c1.252-1.139,2.144-2.917,1.6-4.519,5.936-2.471,6.845-2.705,13.1-1.2a31.706,31.706,0,0,0-1.244-4.6Z" fill="#2f2e41"/>
        <g id="Group_2" data-name="Group 2">
          <path id="Path_12" data-name="Path 12" d="M38.894,314.543V241.648a7.064,7.064,0,0,1,7.8-7.025c18.422-2.478,35.773-1.3,51.5,5.43a3.234,3.234,0,0,1,3.23,3.23v73.15a3.234,3.234,0,0,1-3.23,3.23c-17.309-4.06-35.566-3-54.183,0a5.126,5.126,0,0,1-5.12-5.12Z" fill="#e6e6e6"/>
          <path id="Path_13" data-name="Path 13" d="M38.894,321.032V247.366a7.072,7.072,0,0,1,7.064-7.064,100.316,100.316,0,0,1,52.238,0,3.234,3.234,0,0,1,3.23,3.23v72.4a3.234,3.234,0,0,1-3.222,3.23c-16.968-2.952-35.145-.077-54.191,6.988a5.126,5.126,0,0,1-5.12-5.12Z" fill="#fff"/>
          <path id="Path_14" data-name="Path 14" d="M79.572,270.745H63.1a10.729,10.729,0,0,1,0-21.458H79.572a10.729,10.729,0,1,1,0,21.458Z" fill="#e6e6e6"/>
        </g>
        <path id="Path_15" data-name="Path 15" d="M94.67,126.057l-.63,38.032s-2.012,29.64-7.01,63l-11.912.76s1.466-52.081.932-65.785l.842-30.438,17.778-5.565Z" fill="#a0616a"/>
        <ellipse id="Ellipse_5" data-name="Ellipse 5" cx="8.267" cy="13.924" rx="8.267" ry="13.924" transform="matrix(0.999, -0.034, 0.034, 0.999, 72.99, 223.107)" fill="#a0616a"/>
        <path id="Path_16" data-name="Path 16" d="M94.485,77.637l-9.176.334a9.909,9.909,0,0,0-6.1,7.29c-1.206,5.7-9.66,64.671-8.2,66.031s2.875,1.309,1.515,2.772-3.032,1.485-1.452,2.507,1,4.577,1,4.577l25.38-1.8L94.485,77.637Z" fill="#f78f02"/>
        <path id="Path_17" data-name="Path 17" d="M699.916,417.428H455.764a13.818,13.818,0,0,1-4.169-.644l-.144-.058c-76.45-37.994-142-58.73-200.383-63.4l-.222-.044A13.775,13.775,0,0,1,241.19,340.1V13.838a13.827,13.827,0,0,1,18-13.183L452.2,61.706a11.808,11.808,0,0,0,3.566.551H699.916a13.842,13.842,0,0,1,13.826,13.826V403.6a13.842,13.842,0,0,1-13.826,13.826ZM452.27,414.9a11.836,11.836,0,0,0,3.494.527H699.916A11.839,11.839,0,0,0,711.742,403.6V76.083a11.84,11.84,0,0,0-11.826-11.826H455.764a13.814,13.814,0,0,1-4.169-.644L258.582,2.563a11.826,11.826,0,0,0-15.393,11.275V340.105a11.782,11.782,0,0,0,8.154,11.242c58.6,4.7,124.326,25.492,200.926,63.554Z" fill="#3f3d56"/>
        <path id="Path_18" data-name="Path 18" d="M462.284,402.612c66.57-23.557,140.836-20.853,219.732-2.349a15.757,15.757,0,0,0,19.4-15.308V86.842a15.732,15.732,0,0,0-11.968-15.289C606.22,51.2,528.48,47.456,459.97,71.64a15.82,15.82,0,0,1-14.825-2.412C387.413,25.282,328.329,3.248,267.48,9.79a15.707,15.707,0,0,0-13.964,15.646V326.8a15.743,15.743,0,0,0,14.131,15.651c65.494,6.812,125.676,27.456,181.645,59.07a15.731,15.731,0,0,0,12.991,1.091Z" fill="#fff"/>
        <path id="Path_19" data-name="Path 19" d="M460.146,385.895a24.458,24.458,0,0,1-12.934-3.689C400.207,353.013,349,335.959,295,331.518a24.771,24.771,0,0,1-22.574-24.581V49.522a24.538,24.538,0,0,1,23.327-24.646c39.311-1.833,87.042,15.7,150.205,55.15a22.689,22.689,0,0,0,17.826,2.722c60.028-16.113,125.1-16.584,198.932-1.439A24.809,24.809,0,0,1,682.5,105.5V356.763A24.7,24.7,0,0,1,652,380.738c-69.846-16.624-129.822-15.423-183.359,3.675h0a25.259,25.259,0,0,1-8.493,1.482ZM301.369,26.747c-1.861,0-3.7.042-5.519.127a22.54,22.54,0,0,0-21.419,22.648V306.937a22.758,22.758,0,0,0,20.738,22.587c54.312,4.469,105.822,21.621,153.1,50.982a22.685,22.685,0,0,0,19.7,2.023l.336.941-.336-.941c53.911-19.232,114.26-20.455,184.494-3.737a22.7,22.7,0,0,0,28.041-22.03V105.5a22.8,22.8,0,0,0-18.185-22.233C588.8,68.186,524.027,68.648,464.307,84.68a24.693,24.693,0,0,1-19.4-2.957c-59.858-37.388-105.7-54.976-143.534-54.976Z" fill="#fff"/>
        <rect id="Rectangle_2" data-name="Rectangle 2" width="2" height="301.19" transform="matrix(1, -0.009, 0.009, 1, 453.606, 84.26)" fill="#fff"/>
        <rect id="Rectangle_3" data-name="Rectangle 3" width="2" height="147.5" transform="matrix(0.314, -0.949, 0.949, 0.314, 291.298, 66.265)" fill="#3f3d56"/>
        <rect id="Rectangle_4" data-name="Rectangle 4" width="2" height="147.5" transform="matrix(0.314, -0.949, 0.949, 0.314, 291.298, 103.332)" fill="#3f3d56"/>
        <rect id="Rectangle_5" data-name="Rectangle 5" width="2" height="147.5" transform="matrix(0.314, -0.949, 0.949, 0.314, 291.298, 140.4)" fill="#3f3d56"/>
        <rect id="Rectangle_6" data-name="Rectangle 6" width="2" height="147.5" transform="matrix(0.314, -0.949, 0.949, 0.314, 291.298, 177.467)" fill="#3f3d56"/>
        <rect id="Rectangle_7" data-name="Rectangle 7" width="167.833" height="2" transform="translate(489.307 112.71)" fill="#3f3d56"/>
        <rect id="Rectangle_8" data-name="Rectangle 8" width="167.833" height="2" transform="translate(489.307 147.718)" fill="#3f3d56"/>
        <rect id="Rectangle_9" data-name="Rectangle 9" width="167.833" height="2" transform="translate(489.307 182.726)" fill="#3f3d56"/>
        <rect id="Rectangle_10" data-name="Rectangle 10" width="167.833" height="2" transform="translate(489.307 217.735)" fill="#3f3d56"/>
        <rect id="Rectangle_11" data-name="Rectangle 11" width="167.833" height="2" transform="translate(489.307 252.743)" fill="#3f3d56"/>
        <rect id="Rectangle_12" data-name="Rectangle 12" width="167.833" height="2" transform="translate(489.307 287.751)" fill="#3f3d56"/>
        <path id="Path_20" data-name="Path 20" d="M54.259,437.545a2.269,2.269,0,0,1-1.645-3.933l.155-.618-.062-.148a6.094,6.094,0,0,0-11.241.042c-1.839,4.428-4.179,8.864-4.756,13.546a18.029,18.029,0,0,0,.316,6.2,72.282,72.282,0,0,1-6.575-30.021,69.766,69.766,0,0,1,.433-7.783q.359-3.178.995-6.31a73.119,73.119,0,0,1,14.5-30.99,19.459,19.459,0,0,0,8.093-8.4,14.843,14.843,0,0,0,1.35-4.056c-.394.052-1.486-5.949-1.188-6.317-.549-.833-1.532-1.247-2.131-2.06-2.982-4.043-7.091-3.337-9.236,2.157-4.582,2.313-4.627,6.148-1.815,9.837,1.789,2.347,2.035,5.522,3.6,8.035-.162.207-.329.407-.491.614a73.591,73.591,0,0,0-7.681,12.169,30.592,30.592,0,0,0-1.826-14.21c-1.748-4.217-5.025-7.769-7.91-11.415a6.279,6.279,0,0,0-11.184,3.083q-.009.081-.017.161.643.363,1.259.77a3.078,3.078,0,0,1-1.241,5.6l-.063.01a30.628,30.628,0,0,0,.807,4.579c-3.7,14.316,4.29,19.53,15.7,19.764.252.129.5.258.749.381a75.115,75.115,0,0,0-4.043,19.028,71.243,71.243,0,0,0,.052,11.5l-.019-.136a18.826,18.826,0,0,0-6.427-10.87c-4.946-4.063-11.933-5.559-17.268-8.824a3.533,3.533,0,0,0-5.411,3.437l.022.143a20.671,20.671,0,0,1,2.319,1.117q.643.363,1.259.77a3.078,3.078,0,0,1-1.241,5.6l-.063.01-.129.019a30.655,30.655,0,0,0,5.639,8.829c2.315,12.5,12.256,13.683,22.89,10.043h.006a75.091,75.091,0,0,0,5.044,14.726h18.02c.065-.2.123-.407.181-.607a20.473,20.473,0,0,1-4.986-.3c1.337-1.641,2.674-3.294,4.011-4.935a1.119,1.119,0,0,0,.084-.1c.678-.84,1.363-1.673,2.041-2.512h0a29.99,29.99,0,0,0-.879-7.64h0Z" fill="#fff"/>
        <path id="Path_21" data-name="Path 21" d="M255.81,453.688a1.186,1.186,0,0,1-1.19,1.19H1.33a1.19,1.19,0,0,1,0-2.38H254.62a1.187,1.187,0,0,1,1.19,1.19Z" fill="#ccc"/>
        <g id="Group_3" data-name="Group 3">
          <circle id="Ellipse_6" data-name="Ellipse 6" cx="23" cy="23" r="23" transform="translate(641.19 344.428)" fill="#f78f02"/>
          <path id="Path_22" data-name="Path 22" d="M674.961,366.562l-14.271-8.24a1,1,0,0,0-1.5.866v7.24h-4.281a1,1,0,0,0,0,2h4.281v7.24a1,1,0,0,0,1.5.866l14.271-8.24A1,1,0,0,0,674.961,366.562Z" fill="#fff"/>
        </g>
        <g id="Group_4" data-name="Group 4">
          <path id="Path_23" data-name="Path 23" d="M336.668,302.6a48.472,48.472,0,0,1,11.962-27.747,47.8,47.8,0,0,1,42.124-15.364c1.323.189,1.288,2.29-.049,2.1a46.322,46.322,0,0,0-27.588,4.642,45.715,45.715,0,0,0-24.349,36.418c-.117,1.341-2.217,1.3-2.1-.049h0Z" fill="#fff"/>
          <path id="Path_24" data-name="Path 24" d="M388.426,251.057l16.162,7.974a1.055,1.055,0,0,1,.185,1.66l-15.3,12.648c-1.036.856-2.493-.656-1.449-1.519l15.3-12.648.185,1.66-16.162-7.974c-1.214-.6-.124-2.4,1.08-1.8h0Z" fill="#fff"/>
        </g>
      </g>
      <g id="Group_8" data-name="Group 8" transform="matrix(0.574, -0.819, 0.819, 0.574, -2937.421, 1683.765)">
        <path id="Path_27" data-name="Path 27" d="M75.641,142.739c24.12-8.535,51.028-7.555,79.614-.851a5.709,5.709,0,0,0,7.029-5.546V28.328a5.7,5.7,0,0,0-4.336-5.539c-30.156-7.374-58.323-8.731-83.145.032a5.732,5.732,0,0,1-5.372-.874C48.514,6.024,27.107-1.96,5.06.411A5.691,5.691,0,0,0,0,6.08V115.271a5.7,5.7,0,0,0,5.12,5.671,167.873,167.873,0,0,1,65.814,21.4,5.7,5.7,0,0,0,4.707.4Z" transform="matrix(0.974, -0.225, 0.225, 0.974, -305.768, 2947.704)" fill="#fff"/>
        <rect id="Rectangle_13" data-name="Rectangle 13" width="0.724" height="53.443" transform="translate(-287.917 2965.378) rotate(-85)" fill="#3f3d56"/>
        <rect id="Rectangle_14" data-name="Rectangle 14" width="0.724" height="53.443" transform="translate(-284.825 2978.448) rotate(-85)" fill="#3f3d56"/>
        <rect id="Rectangle_15" data-name="Rectangle 15" width="0.724" height="53.443" transform="translate(-281.734 2991.517) rotate(-85)" fill="#3f3d56"/>
        <rect id="Rectangle_16" data-name="Rectangle 16" width="0.724" height="53.443" transform="translate(-278.642 3004.587) rotate(-85)" fill="#3f3d56"/>
        <rect id="Rectangle_17" data-name="Rectangle 17" width="60.81" height="0.725" transform="matrix(0.974, -0.225, 0.225, 0.974, -214.044, 2965.22)" fill="#3f3d56"/>
        <rect id="Rectangle_18" data-name="Rectangle 18" width="60.81" height="0.725" transform="matrix(0.974, -0.225, 0.225, 0.974, -211.191, 2977.58)" fill="#3f3d56"/>
        <rect id="Rectangle_19" data-name="Rectangle 19" width="60.81" height="0.725" transform="matrix(0.974, -0.225, 0.225, 0.974, -208.337, 2989.939)" fill="#3f3d56"/>
        <rect id="Rectangle_20" data-name="Rectangle 20" width="60.81" height="0.725" transform="matrix(0.974, -0.225, 0.225, 0.974, -205.484, 3002.298)" fill="#3f3d56"/>
        <rect id="Rectangle_21" data-name="Rectangle 21" width="60.81" height="0.725" transform="matrix(0.974, -0.225, 0.225, 0.974, -202.631, 3014.657)" fill="#3f3d56"/>
        <rect id="Rectangle_22" data-name="Rectangle 22" width="60.81" height="0.725" transform="matrix(0.974, -0.225, 0.225, 0.974, -199.777, 3027.016)" fill="#3f3d56"/>
        <path id="Path_29" data-name="Path 29" d="M2.515,104.874l-5.03-6.221c4.574-3.7,45.152-36.129,61.067-35.79,2.993-.424,3.645-1.567,4.121-2.4l.447-.7C72.653,36.826,92.294,14.7,118.759-3.307l4.5,6.614C98.02,20.48,79.381,41.395,70.777,62.2a6.552,6.552,0,0,1-1.382,2.44c-1.218,2.323-3.736,5.343-10.423,6.193C48.589,70.654,18.917,91.613,2.515,104.874Z" transform="matrix(0.819, 0.574, -0.574, 0.819, -218.324, 2981.65)" fill="#f78f02"/>
      </g>
      <path id="Path_47" data-name="Path 47" d="M327.181,5.365h0c-.048.046-.091.095-.138.141a18.978,18.978,0,0,0-26.588-.144h0a18.978,18.978,0,0,0-.565,26.654l0,0,.178.183h0l26.272,27.05L353.568,32.8l-.076-.078c.046-.044.093-.084.139-.128h0a18.982,18.982,0,0,0,.392-26.841h0a18.981,18.981,0,0,0-26.841-.392Z" transform="translate(150.495 3661.762)" fill="#f7a502"/>
      <path id="Path_48" data-name="Path 48" d="M327.181,5.365h0c-.048.046-.091.095-.138.141a18.978,18.978,0,0,0-26.588-.144h0a18.978,18.978,0,0,0-.565,26.654l0,0,.178.183h0l26.272,27.05L353.568,32.8l-.076-.078c.046-.044.093-.084.139-.128h0a18.982,18.982,0,0,0,.392-26.841h0a18.981,18.981,0,0,0-26.841-.392Z" transform="translate(155.909 3583.627) rotate(-11)" fill="#f7a502"/>
      <path id="Path_49" data-name="Path 49" d="M327.181,5.365h0c-.048.046-.091.095-.138.141a18.978,18.978,0,0,0-26.588-.144h0a18.978,18.978,0,0,0-.565,26.654l0,0,.178.183h0l26.272,27.05L353.568,32.8l-.076-.078c.046-.044.093-.084.139-.128h0a18.982,18.982,0,0,0,.392-26.841h0a18.981,18.981,0,0,0-26.841-.392Z" transform="translate(-58.668 3277.699) rotate(9)" fill="#f7a502"/>
      <path id="Path_50" data-name="Path 50" d="M327.181,5.365h0c-.048.046-.091.095-.138.141a18.978,18.978,0,0,0-26.588-.144h0a18.978,18.978,0,0,0-.565,26.654l0,0,.178.183h0l26.272,27.05L353.568,32.8l-.076-.078c.046-.044.093-.084.139-.128h0a18.982,18.982,0,0,0,.392-26.841h0a18.981,18.981,0,0,0-26.841-.392Z" transform="translate(-420.507 3698.255) rotate(9)" fill="#f7a502"/>
      <path id="Path_51" data-name="Path 51" d="M-602.724,3813.447c-.04-.02-4.029-2.022-9.938-5.532a219.583,219.583,0,0,1-22.063-14.956,127.018,127.018,0,0,1-22.646-21.979,65.78,65.78,0,0,1-7.931-12.9,41.322,41.322,0,0,1-3.715-13.793,33.555,33.555,0,0,1,.674-9.847,36.626,36.626,0,0,1,3.86-9.986,50.555,50.555,0,0,1,7.5-10,80.408,80.408,0,0,1,11.581-9.912,119.261,119.261,0,0,1,15.351-9.353,118.152,118.152,0,0,1,14.71-6.265c9.622-3.371,19.046-5.39,28.159-7.342,10.889-2.333,22.15-4.745,33.481-9.47a105.185,105.185,0,0,0,17.277-9.155,125.332,125.332,0,0,0,18.093-14.5,192.724,192.724,0,0,0,19.237-21.668,327.878,327.878,0,0,0,20.7-30.638c7.321-12.148,14.88-26.079,22.466-41.407,7.949-16.061,16.208-34.22,24.549-53.974A589.671,589.671,0,0,1-380.948,3406a509.555,509.555,0,0,1,62.961-78.11,419.188,419.188,0,0,1,72.486-58.945,335.263,335.263,0,0,1,79.017-37.271,275.6,275.6,0,0,1,82.956-13.081,257.159,257.159,0,0,1,30.315,1.788c39.041,4.631,76.766,18.249,112.126,40.475,32.6,20.489,71.347,30.8,115.518,30.8A310.946,310.946,0,0,0,208,3289.783c46.688-5.07,98.674-20.391,154.514-45.538,21.943-9.881,44.54-21.322,67.164-34,18.1-10.147,36.258-21.106,53.968-32.574,30.152-19.524,48.786-33.937,48.97-34.08l.613.79c-.185.144-18.852,14.582-49.04,34.129-17.728,11.479-35.9,22.45-54.023,32.607-22.649,12.7-45.273,24.151-67.242,34.045-55.936,25.19-108.024,40.538-154.816,45.62a309.78,309.78,0,0,1-39.421,1.835,249.9,249.9,0,0,1-38.5-3.673,210.491,210.491,0,0,1-36.973-10.024A192.254,192.254,0,0,1,58.381,3261.7c-44.529-27.99-92.572-42.132-141.872-42.132a274.636,274.636,0,0,0-82.693,13.059,334.268,334.268,0,0,0-78.78,37.161,418.2,418.2,0,0,0-72.312,58.805,508.549,508.549,0,0,0-62.836,77.957,588.663,588.663,0,0,0-50.353,94.61c-8.348,19.772-16.616,37.95-24.574,54.028-7.6,15.353-15.17,29.309-22.506,41.48a328.876,328.876,0,0,1-20.76,30.732,193.738,193.738,0,0,1-19.338,21.781A126.351,126.351,0,0,1-535.88,3663.8a106.186,106.186,0,0,1-17.44,9.241c-11.417,4.761-22.723,7.183-33.657,9.525-9.083,1.946-18.475,3.958-28.038,7.308a117.179,117.179,0,0,0-14.587,6.213,118.314,118.314,0,0,0-15.224,9.275c-16.487,11.777-24.291,24.848-23.2,38.852.656,8.378,4.5,17.176,11.435,26.151a125.987,125.987,0,0,0,22.461,21.8,218.5,218.5,0,0,0,21.959,14.887c5.883,3.5,9.85,5.487,9.889,5.507Z" fill="#707070"/>
      <path id="Path_52" data-name="Path 52" d="M-787.451,3813.2l-.913-.407c.041-.093,4.24-9.48,11.813-23.058,4.447-7.973,9.171-15.812,14.042-23.3,6.089-9.361,12.425-18.2,18.833-26.26,16.321-20.54,33.2-36.265,50.17-46.738a118.927,118.927,0,0,1,14.814-7.8,97.3,97.3,0,0,1,15.609-5.325,84.612,84.612,0,0,1,16.342-2.381,81.341,81.341,0,0,1,17.008,1.028,24.959,24.959,0,0,0,7.773.062,29.968,29.968,0,0,0,7.781-2.323c5.065-2.259,10.332-6.067,15.654-11.317a135.269,135.269,0,0,0,15.769-19.31,300.549,300.549,0,0,0,15.894-26.146c21.3-38.919,42.95-92.719,65.867-149.677,13.3-33.056,27.053-67.237,41.283-99.81,7.685-17.591,14.8-33.1,21.752-47.422,7.839-16.146,15.242-30.315,22.633-43.316a431.4,431.4,0,0,1,23.621-37.373,230.76,230.76,0,0,1,24.728-29.6,139.8,139.8,0,0,1,12.819-11.307,100.353,100.353,0,0,1,13.148-8.67,75.083,75.083,0,0,1,13.493-5.8,61.772,61.772,0,0,1,13.849-2.678,264.255,264.255,0,0,1,28.042-.575c8.889.291,17.977,1.045,27.01,2.241a326.317,326.317,0,0,1,51.482,11.309c14.969,4.5,31.009,10.291,49.036,17.706,16.061,6.607,32.156,13.853,47.721,20.861,25.1,11.3,51.062,22.989,77.281,32.157a380.891,380.891,0,0,0,39.955,11.732c6.922,1.6,13.842,2.962,20.568,4.034,7.054,1.125,14.14,1.976,21.062,2.53a139.119,139.119,0,0,0,20.476.1,155.678,155.678,0,0,0,20.1-2.732,209.389,209.389,0,0,0,39.324-12.382,394.9,394.9,0,0,0,38.584-18.949c12.8-7.057,25.782-14.814,38.342-22.316,16.426-9.811,33.411-19.957,50.41-28.814,9.159-4.773,17.574-8.792,25.726-12.287a253.637,253.637,0,0,1,26.264-9.687,192.106,192.106,0,0,1,26.945-6.2,159.764,159.764,0,0,1,27.763-1.809,151.541,151.541,0,0,1,28.714,3.472,166.337,166.337,0,0,1,29.792,9.64c46.612,19.977,80.214,36.082,99.87,47.869,13.282,7.964,19.836,13.742,19.478,17.172a2.7,2.7,0,0,1-2.154,2.205l-.2-.98c.049-.01,1.251-.275,1.356-1.336.081-.815-.415-2.353-3.236-5.056-3.144-3.013-8.461-6.771-15.8-11.17-19.624-11.762-53.171-27.838-99.712-47.784a165.319,165.319,0,0,0-29.612-9.582,150.526,150.526,0,0,0-28.524-3.449,158.891,158.891,0,0,0-27.589,1.8,191.075,191.075,0,0,0-26.8,6.163,252.669,252.669,0,0,0-26.161,9.65c-8.129,3.485-16.521,7.494-25.658,12.255-16.973,8.844-33.945,18.982-50.359,28.786-12.566,7.506-25.561,15.267-38.372,22.333a395.918,395.918,0,0,1-38.682,19,210.362,210.362,0,0,1-39.512,12.439,156.646,156.646,0,0,1-20.227,2.749,140.214,140.214,0,0,1-20.624-.105c-6.948-.556-14.06-1.41-21.14-2.539-6.749-1.076-13.692-2.438-20.636-4.048a381.908,381.908,0,0,1-40.06-11.762c-26.26-9.183-52.239-20.878-77.362-32.189-15.558-7-31.646-14.247-47.691-20.848-18-7.4-34.005-13.184-48.943-17.673a325.37,325.37,0,0,0-51.325-11.276c-9-1.192-18.055-1.943-26.911-2.233a263.288,263.288,0,0,0-27.936.573,60.766,60.766,0,0,0-13.624,2.635,74.093,74.093,0,0,0-13.312,5.719,99.317,99.317,0,0,0-13.016,8.583,138.779,138.779,0,0,0-12.727,11.226,229.759,229.759,0,0,0-24.618,29.467,430.406,430.406,0,0,0-23.566,37.286c-7.38,12.982-14.773,27.132-22.6,43.258-6.946,14.307-14.056,29.807-21.735,47.386-14.224,32.559-27.974,66.733-41.272,99.782-22.929,56.987-44.586,110.813-65.918,149.784a301.6,301.6,0,0,1-15.948,26.234,136.254,136.254,0,0,1-15.889,19.454,70.086,70.086,0,0,1-7.958,6.825,44.846,44.846,0,0,1-7.992,4.693,30.958,30.958,0,0,1-8.041,2.4,25.98,25.98,0,0,1-8.084-.064,79.771,79.771,0,0,0-13.128-1.089c-16.571,0-33.318,5.166-49.955,15.434-16.87,10.412-33.663,26.06-49.912,46.51-6.388,8.039-12.706,16.848-18.778,26.183-4.858,7.469-9.571,15.288-14.007,23.242C-783.229,3803.764-787.41,3813.111-787.451,3813.2Z" fill="#707070"/>
      <g id="Group_9" data-name="Group 9" transform="matrix(0.788, -0.616, 0.616, 0.788, -2030.305, 717.912)">
        <path id="Path_27-2" data-name="Path 27" d="M81.776,154.315c26.076-9.227,55.166-8.168,86.071-.92a6.172,6.172,0,0,0,7.6-6V30.625a6.162,6.162,0,0,0-4.688-5.989c-32.6-7.972-63.053-9.439-89.888.034a6.2,6.2,0,0,1-5.807-.945C52.448,6.512,29.3-2.119,5.47.444A6.153,6.153,0,0,0,0,6.573V124.619a6.167,6.167,0,0,0,5.535,6.131c25.654,2.668,49.228,10.755,71.152,23.138a6.162,6.162,0,0,0,5.089.427Z" transform="matrix(0.974, -0.225, 0.225, 0.974, -305.768, 2950.665)" fill="#fff"/>
        <rect id="Rectangle_13-2" data-name="Rectangle 13" width="0.783" height="57.777" transform="translate(-286.469 2969.772) rotate(-85)" fill="#3f3d56"/>
        <rect id="Rectangle_14-2" data-name="Rectangle 14" width="0.783" height="57.777" transform="translate(-283.127 2983.902) rotate(-85)" fill="#3f3d56"/>
        <rect id="Rectangle_15-2" data-name="Rectangle 15" width="0.783" height="57.777" transform="translate(-279.784 2998.031) rotate(-85)" fill="#3f3d56"/>
        <rect id="Rectangle_16-2" data-name="Rectangle 16" width="0.783" height="57.777" transform="translate(-276.442 3012.161) rotate(-85)" fill="#3f3d56"/>
        <rect id="Rectangle_17-2" data-name="Rectangle 17" width="65.741" height="0.783" transform="matrix(0.974, -0.225, 0.225, 0.974, -206.605, 2969.602)" fill="#3f3d56"/>
        <rect id="Rectangle_18-2" data-name="Rectangle 18" width="65.741" height="0.783" transform="matrix(0.974, -0.225, 0.225, 0.974, -203.52, 2982.963)" fill="#3f3d56"/>
        <rect id="Rectangle_19-2" data-name="Rectangle 19" width="65.741" height="0.783" transform="matrix(0.974, -0.225, 0.225, 0.974, -200.436, 2996.325)" fill="#3f3d56"/>
        <rect id="Rectangle_20-2" data-name="Rectangle 20" width="65.741" height="0.783" transform="matrix(0.974, -0.225, 0.225, 0.974, -197.351, 3009.686)" fill="#3f3d56"/>
        <rect id="Rectangle_21-2" data-name="Rectangle 21" width="65.741" height="0.783" transform="matrix(0.974, -0.225, 0.225, 0.974, -194.266, 3023.048)" fill="#3f3d56"/>
        <rect id="Rectangle_22-2" data-name="Rectangle 22" width="65.741" height="0.783" transform="matrix(0.974, -0.225, 0.225, 0.974, -191.182, 3036.409)" fill="#3f3d56"/>
        <path id="Path_29-2" data-name="Path 29" d="M2.515,113.126l-5.03-6.221c4.936-3.991,48.718-38.984,65.809-38.62,3.445-.482,4.2-1.8,4.744-2.76l.266-.467.214-.274C78.8,40.016,100,16.133,128.573-3.307l4.5,6.614c-27.339,18.6-47.531,41.263-56.856,63.811a6.768,6.768,0,0,1-1.424,2.532c-1.332,2.515-3.993,5.7-11.08,6.6C52.444,76.057,20.28,98.762,2.515,113.126Z" transform="matrix(0.819, 0.574, -0.574, 0.819, -211.232, 2987.364)" fill="#f78f02"/>
      </g>
      <g id="Group_10" data-name="Group 10" transform="matrix(0.993, -0.122, 0.122, 0.993, 171.838, 221.659)">
        <path id="Path_27-3" data-name="Path 27" d="M63.715,120.233c20.317-7.189,42.983-6.364,67.061-.717a4.809,4.809,0,0,0,5.921-4.672V23.862a4.8,4.8,0,0,0-3.652-4.666c-25.4-6.212-49.127-7.354-70.036.027a4.828,4.828,0,0,1-4.525-.736C40.865,5.074,22.833-1.651,4.262.346A4.794,4.794,0,0,0,0,5.121V97.1a4.8,4.8,0,0,0,4.313,4.777A141.4,141.4,0,0,1,59.75,119.9a4.8,4.8,0,0,0,3.965.333Z" transform="matrix(0.974, -0.225, 0.225, 0.974, -305.768, 2941.948)" fill="#fff"/>
        <rect id="Rectangle_13-3" data-name="Rectangle 13" width="0.61" height="45.016" transform="translate(-290.731 2956.835) rotate(-85)" fill="#3f3d56"/>
        <rect id="Rectangle_14-3" data-name="Rectangle 14" width="0.61" height="45.016" transform="translate(-288.127 2967.844) rotate(-85)" fill="#3f3d56"/>
        <rect id="Rectangle_15-3" data-name="Rectangle 15" width="0.61" height="45.016" transform="translate(-285.523 2978.854) rotate(-85)" fill="#3f3d56"/>
        <rect id="Rectangle_16-3" data-name="Rectangle 16" width="0.61" height="45.016" transform="translate(-282.919 2989.862) rotate(-85)" fill="#3f3d56"/>
        <rect id="Rectangle_17-3" data-name="Rectangle 17" width="51.222" height="0.61" transform="matrix(0.974, -0.225, 0.225, 0.974, -228.506, 2956.703)" fill="#3f3d56"/>
        <rect id="Rectangle_18-3" data-name="Rectangle 18" width="51.222" height="0.61" transform="matrix(0.974, -0.225, 0.225, 0.974, -226.103, 2967.113)" fill="#3f3d56"/>
        <rect id="Rectangle_19-3" data-name="Rectangle 19" width="51.222" height="0.61" transform="matrix(0.974, -0.225, 0.225, 0.974, -223.699, 2977.524)" fill="#3f3d56"/>
        <rect id="Rectangle_20-3" data-name="Rectangle 20" width="51.222" height="0.61" transform="matrix(0.974, -0.225, 0.225, 0.974, -221.296, 2987.934)" fill="#3f3d56"/>
        <rect id="Rectangle_21-3" data-name="Rectangle 21" width="51.222" height="0.61" transform="matrix(0.974, -0.225, 0.225, 0.974, -218.892, 2998.345)" fill="#3f3d56"/>
        <rect id="Rectangle_22-3" data-name="Rectangle 22" width="51.222" height="0.61" transform="matrix(0.974, -0.225, 0.225, 0.974, -216.489, 3008.755)" fill="#3f3d56"/>
        <path id="Path_29-3" data-name="Path 29" d="M2.515,88.829l-5.03-6.221C3.8,77.5,35.985,52.037,49.334,52.321c2.116-.313,2.556-1.085,2.91-1.705L52.626,50C60.7,30.622,77.314,11.91,99.68-3.307l4.5,6.614C83.02,17.7,67.4,35.221,60.2,52.632a6.035,6.035,0,0,1-1.3,2.26c-.465,1.017-2.479,4.549-9.146,5.4C41.078,60.147,16.26,77.715,2.515,88.829Z" transform="matrix(0.819, 0.574, -0.574, 0.819, -232.111, 2970.542)" fill="#f78f02"/>
      </g>
    </g>
  </g>
</svg>
