<svg id="undraw_books_re_8gea_1_" data-name="undraw_books_re_8gea (1)" xmlns="http://www.w3.org/2000/svg" width="713.742" height="454.878" viewBox="0 0 713.742 454.878">
  <path id="Path_3" data-name="Path 3" d="M151.455,107.121l26.994,36.849s23.014,9.678,49.913,29.109l-6.439,10.051s-44.4-18.18-55.759-25.861l-20.747-32.525,6.038-17.623Z" fill="#a0616a"/>
  <ellipse id="Ellipse_3" data-name="Ellipse 3" cx="8.267" cy="13.924" rx="8.267" ry="13.924" transform="translate(216.847 182.041) rotate(-55.653)" fill="#a0616a"/>
  <path id="Path_4" data-name="Path 4" d="M138.261,75.664l8.834-2.506a9.909,9.909,0,0,1,8.043,5.061c2.9,5.051,23.441,50.085,22.468,51.829s-2.333,2.13-.588,3.1,3.342.48,2.153,1.939.454,4.664.454,4.664l-22.66,16.719-18.7-80.809Z" fill="#f78f02"/>
  <path id="Path_5" data-name="Path 5" d="M103.988,445.968h10.777l5.127-41.57H103.986Z" fill="#a0616a"/>
  <path id="Path_6" data-name="Path 6" d="M140.912,445.724h0a9.254,9.254,0,0,1,.513,3.046h0a3.658,3.658,0,0,1-3.658,3.658H104.391a2.5,2.5,0,0,1-2.5-2.5v-1.39s-1.651-4.176,1.748-9.324c0,0,4.225,4.031,10.538-2.282l1.862-3.372,13.476,9.855,7.469.919c1.634.2,3.083-.031,3.924,1.385Z" fill="#2f2e41"/>
  <path id="Path_7" data-name="Path 7" d="M142.995,435.466l10.628,1.784L165.566,397.1,149.88,394.47Z" fill="#a0616a"/>
  <path id="Path_8" data-name="Path 8" d="M179.449,441.342h0a9.254,9.254,0,0,1,0,3.089h0a3.658,3.658,0,0,1-4.213,3l-32.915-5.53a2.5,2.5,0,0,1-2.047-2.874l.23-1.37s-.936-4.392,3.269-8.905c0,0,3.5,4.675,10.77-.5l2.395-3.017L168.6,437.182l7.214,2.144c1.578.469,3.046.48,3.64,2.015Z" fill="#2f2e41"/>
  <path id="Path_9" data-name="Path 9" d="M165.087,222.162s14.48,16.952,14.48,32.492.353,64.355.353,64.355-8.476,76.207-10.6,82.564-3.179,16.952-3.179,16.952l-20.484-4.944s-2.825-71.693,5.651-88.645l-20.484-57.92-7.063,163.87H99.987S87.743,344.711,94.1,322.108c0,0-14.127-86.173-10.6-91.117s81.582-8.829,81.582-8.829Z" fill="#2f2e41"/>
  <path id="Path_10" data-name="Path 10" d="M112.465,53.348l19.071,1.413,6.357,10.6s14.833,6.357,16.952,15.539,2.825,116.546,2.825,116.546l10.6,15.539-.706,13.42L82.8,230.639v-12.9l-7.77-15.35s8.476-122.9,10.6-123.609,18.365-12.008,18.365-12.008l8.476-13.42Z" fill="#f78f02"/>
  <circle id="Ellipse_4" data-name="Ellipse 4" cx="24.015" cy="24.015" r="24.015" transform="translate(97.08 2.688)" fill="#a0616a"/>
  <path id="Path_11" data-name="Path 11" d="M140.279,7.387A8.443,8.443,0,0,0,131.993,1.9c-.156,0-.311,0-.465,0a34.645,34.645,0,0,1-5.44-1.078,19.547,19.547,0,0,0-10.21.662,9.761,9.761,0,0,1-3.1.788,2.506,2.506,0,0,1-2.5-1.628q-.093,1.413-.186,2.826l-1.047-2.287-.7,3.04L106.1,1.678a3.269,3.269,0,0,1-1.337,2.965A12.316,12.316,0,0,1,101.74,6.2c-4.517,1.925-8.758,5.334-10.06,10.069-.822,2.991-.392,6.166.044,9.237.385,2.715.8,5.524,2.28,7.836.946,1.482,2.31,2.729,2.886,4.39.537,1.548.334,3.321,1.1,4.771a6.73,6.73,0,0,0,3.9,2.833,17.583,17.583,0,0,1,4.533,1.908c1.335.963,2.884,3.737,5.793,3.588l.939-1.764c.966-.787-2.608-.163-2.645-1.408s4.3-2.014,3.685-3.1c-.943-1.661-2.218-3.107-3.28-4.695-1.242-1.857-2.219-4.026-1.791-6.292a4.578,4.578,0,0,1,1.208-2.355c1.812-1.846,3.832-1.035,5.795-.771,1.353.182,2.969-.028,3.672-1.2.822-1.37-.094-3.112.018-4.705a5.766,5.766,0,0,1,2.79-4.035,38.308,38.308,0,0,0,4.225-2.8c1.252-1.139,2.144-2.917,1.6-4.519,5.936-2.471,6.845-2.705,13.1-1.2a31.706,31.706,0,0,0-1.244-4.6Z" fill="#2f2e41"/>
  <g id="Group_2" data-name="Group 2">
    <path id="Path_12" data-name="Path 12" d="M38.894,314.543V241.648a7.064,7.064,0,0,1,7.8-7.025c18.422-2.478,35.773-1.3,51.5,5.43a3.234,3.234,0,0,1,3.23,3.23v73.15a3.234,3.234,0,0,1-3.23,3.23c-17.309-4.06-35.566-3-54.183,0a5.126,5.126,0,0,1-5.12-5.12Z" fill="#e6e6e6"/>
    <path id="Path_13" data-name="Path 13" d="M38.894,321.032V247.366a7.072,7.072,0,0,1,7.064-7.064,100.316,100.316,0,0,1,52.238,0,3.234,3.234,0,0,1,3.23,3.23v72.4a3.234,3.234,0,0,1-3.222,3.23c-16.968-2.952-35.145-.077-54.191,6.988a5.126,5.126,0,0,1-5.12-5.12Z" fill="#fff"/>
    <path id="Path_14" data-name="Path 14" d="M79.572,270.745H63.1a10.729,10.729,0,0,1,0-21.458H79.572a10.729,10.729,0,1,1,0,21.458Z" fill="#e6e6e6"/>
  </g>
  <path id="Path_15" data-name="Path 15" d="M94.67,126.057l-.63,38.032s-2.012,29.64-7.01,63l-11.912.76s1.466-52.081.932-65.785l.842-30.438,17.778-5.565Z" fill="#a0616a"/>
  <ellipse id="Ellipse_5" data-name="Ellipse 5" cx="8.267" cy="13.924" rx="8.267" ry="13.924" transform="matrix(0.999, -0.034, 0.034, 0.999, 72.99, 223.107)" fill="#a0616a"/>
  <path id="Path_16" data-name="Path 16" d="M94.485,77.637l-9.176.334a9.909,9.909,0,0,0-6.1,7.29c-1.206,5.7-9.66,64.671-8.2,66.031s2.875,1.309,1.515,2.772-3.032,1.485-1.452,2.507,1,4.577,1,4.577l25.38-1.8L94.485,77.637Z" fill="#f78f02"/>
  <path id="Path_17" data-name="Path 17" d="M699.916,417.428H455.764a13.818,13.818,0,0,1-4.169-.644l-.144-.058c-76.45-37.994-142-58.73-200.383-63.4l-.222-.044A13.775,13.775,0,0,1,241.19,340.1V13.838a13.827,13.827,0,0,1,18-13.183L452.2,61.706a11.808,11.808,0,0,0,3.566.551H699.916a13.842,13.842,0,0,1,13.826,13.826V403.6a13.842,13.842,0,0,1-13.826,13.826ZM452.27,414.9a11.836,11.836,0,0,0,3.494.527H699.916A11.839,11.839,0,0,0,711.742,403.6V76.083a11.84,11.84,0,0,0-11.826-11.826H455.764a13.814,13.814,0,0,1-4.169-.644L258.582,2.563a11.826,11.826,0,0,0-15.393,11.275V340.105a11.782,11.782,0,0,0,8.154,11.242c58.6,4.7,124.326,25.492,200.926,63.554Z" fill="#3f3d56"/>
  <path id="Path_18" data-name="Path 18" d="M462.284,402.612c66.57-23.557,140.836-20.853,219.732-2.349a15.757,15.757,0,0,0,19.4-15.308V86.842a15.732,15.732,0,0,0-11.968-15.289C606.22,51.2,528.48,47.456,459.97,71.64a15.82,15.82,0,0,1-14.825-2.412C387.413,25.282,328.329,3.248,267.48,9.79a15.707,15.707,0,0,0-13.964,15.646V326.8a15.743,15.743,0,0,0,14.131,15.651c65.494,6.812,125.676,27.456,181.645,59.07a15.731,15.731,0,0,0,12.991,1.091Z" fill="#fff"/>
  <path id="Path_19" data-name="Path 19" d="M460.146,385.895a24.458,24.458,0,0,1-12.934-3.689C400.207,353.013,349,335.959,295,331.518a24.771,24.771,0,0,1-22.574-24.581V49.522a24.538,24.538,0,0,1,23.327-24.646c39.311-1.833,87.042,15.7,150.205,55.15a22.689,22.689,0,0,0,17.826,2.722c60.028-16.113,125.1-16.584,198.932-1.439A24.809,24.809,0,0,1,682.5,105.5V356.763A24.7,24.7,0,0,1,652,380.738c-69.846-16.624-129.822-15.423-183.359,3.675h0a25.259,25.259,0,0,1-8.493,1.482ZM301.369,26.747c-1.861,0-3.7.042-5.519.127a22.54,22.54,0,0,0-21.419,22.648V306.937a22.758,22.758,0,0,0,20.738,22.587c54.312,4.469,105.822,21.621,153.1,50.982a22.685,22.685,0,0,0,19.7,2.023l.336.941-.336-.941c53.911-19.232,114.26-20.455,184.494-3.737a22.7,22.7,0,0,0,28.041-22.03V105.5a22.8,22.8,0,0,0-18.185-22.233C588.8,68.186,524.027,68.648,464.307,84.68a24.693,24.693,0,0,1-19.4-2.957c-59.858-37.388-105.7-54.976-143.534-54.976Z" fill="#fff"/>
  <rect id="Rectangle_2" data-name="Rectangle 2" width="2" height="301.19" transform="matrix(1, -0.009, 0.009, 1, 453.606, 84.26)" fill="#fff"/>
  <rect id="Rectangle_3" data-name="Rectangle 3" width="2" height="147.5" transform="matrix(0.314, -0.949, 0.949, 0.314, 291.298, 66.265)" fill="#3f3d56"/>
  <rect id="Rectangle_4" data-name="Rectangle 4" width="2" height="147.5" transform="matrix(0.314, -0.949, 0.949, 0.314, 291.298, 103.332)" fill="#3f3d56"/>
  <rect id="Rectangle_5" data-name="Rectangle 5" width="2" height="147.5" transform="matrix(0.314, -0.949, 0.949, 0.314, 291.298, 140.4)" fill="#3f3d56"/>
  <rect id="Rectangle_6" data-name="Rectangle 6" width="2" height="147.5" transform="matrix(0.314, -0.949, 0.949, 0.314, 291.298, 177.467)" fill="#3f3d56"/>
  <rect id="Rectangle_7" data-name="Rectangle 7" width="167.833" height="2" transform="translate(489.307 112.71)" fill="#3f3d56"/>
  <rect id="Rectangle_8" data-name="Rectangle 8" width="167.833" height="2" transform="translate(489.307 147.718)" fill="#3f3d56"/>
  <rect id="Rectangle_9" data-name="Rectangle 9" width="167.833" height="2" transform="translate(489.307 182.726)" fill="#3f3d56"/>
  <rect id="Rectangle_10" data-name="Rectangle 10" width="167.833" height="2" transform="translate(489.307 217.735)" fill="#3f3d56"/>
  <rect id="Rectangle_11" data-name="Rectangle 11" width="167.833" height="2" transform="translate(489.307 252.743)" fill="#3f3d56"/>
  <rect id="Rectangle_12" data-name="Rectangle 12" width="167.833" height="2" transform="translate(489.307 287.751)" fill="#3f3d56"/>
  <path id="Path_20" data-name="Path 20" d="M54.259,437.545a2.269,2.269,0,0,1-1.645-3.933l.155-.618-.062-.148a6.094,6.094,0,0,0-11.241.042c-1.839,4.428-4.179,8.864-4.756,13.546a18.029,18.029,0,0,0,.316,6.2,72.282,72.282,0,0,1-6.575-30.021,69.766,69.766,0,0,1,.433-7.783q.359-3.178.995-6.31a73.119,73.119,0,0,1,14.5-30.99,19.459,19.459,0,0,0,8.093-8.4,14.843,14.843,0,0,0,1.35-4.056c-.394.052-1.486-5.949-1.188-6.317-.549-.833-1.532-1.247-2.131-2.06-2.982-4.043-7.091-3.337-9.236,2.157-4.582,2.313-4.627,6.148-1.815,9.837,1.789,2.347,2.035,5.522,3.6,8.035-.162.207-.329.407-.491.614a73.591,73.591,0,0,0-7.681,12.169,30.592,30.592,0,0,0-1.826-14.21c-1.748-4.217-5.025-7.769-7.91-11.415a6.279,6.279,0,0,0-11.184,3.083q-.009.081-.017.161.643.363,1.259.77a3.078,3.078,0,0,1-1.241,5.6l-.063.01a30.628,30.628,0,0,0,.807,4.579c-3.7,14.316,4.29,19.53,15.7,19.764.252.129.5.258.749.381a75.115,75.115,0,0,0-4.043,19.028,71.243,71.243,0,0,0,.052,11.5l-.019-.136a18.826,18.826,0,0,0-6.427-10.87c-4.946-4.063-11.933-5.559-17.268-8.824a3.533,3.533,0,0,0-5.411,3.437l.022.143a20.671,20.671,0,0,1,2.319,1.117q.643.363,1.259.77a3.078,3.078,0,0,1-1.241,5.6l-.063.01-.129.019a30.655,30.655,0,0,0,5.639,8.829c2.315,12.5,12.256,13.683,22.89,10.043h.006a75.091,75.091,0,0,0,5.044,14.726h18.02c.065-.2.123-.407.181-.607a20.473,20.473,0,0,1-4.986-.3c1.337-1.641,2.674-3.294,4.011-4.935a1.119,1.119,0,0,0,.084-.1c.678-.84,1.363-1.673,2.041-2.512h0a29.99,29.99,0,0,0-.879-7.64h0Z" fill="#fff"/>
  <path id="Path_21" data-name="Path 21" d="M255.81,453.688a1.186,1.186,0,0,1-1.19,1.19H1.33a1.19,1.19,0,0,1,0-2.38H254.62a1.187,1.187,0,0,1,1.19,1.19Z" fill="#ccc"/>
  <g id="Group_3" data-name="Group 3">
    <circle id="Ellipse_6" data-name="Ellipse 6" cx="23" cy="23" r="23" transform="translate(641.19 344.428)" fill="#f78f02"/>
    <path id="Path_22" data-name="Path 22" d="M674.961,366.562l-14.271-8.24a1,1,0,0,0-1.5.866v7.24h-4.281a1,1,0,0,0,0,2h4.281v7.24a1,1,0,0,0,1.5.866l14.271-8.24A1,1,0,0,0,674.961,366.562Z" fill="#fff"/>
  </g>
  <g id="Group_4" data-name="Group 4">
    <path id="Path_23" data-name="Path 23" d="M336.668,302.6a48.472,48.472,0,0,1,11.962-27.747,47.8,47.8,0,0,1,42.124-15.364c1.323.189,1.288,2.29-.049,2.1a46.322,46.322,0,0,0-27.588,4.642,45.715,45.715,0,0,0-24.349,36.418c-.117,1.341-2.217,1.3-2.1-.049h0Z" fill="#fff"/>
    <path id="Path_24" data-name="Path 24" d="M388.426,251.057l16.162,7.974a1.055,1.055,0,0,1,.185,1.66l-15.3,12.648c-1.036.856-2.493-.656-1.449-1.519l15.3-12.648.185,1.66-16.162-7.974c-1.214-.6-.124-2.4,1.08-1.8h0Z" fill="#fff"/>
  </g>
</svg>
