<svg xmlns="http://www.w3.org/2000/svg" width="252.002" height="277.5" viewBox="0 0 252.002 277.5">
  <g id="Group_1" data-name="Group 1" transform="translate(-763.998 -461)">
    <path id="Ellipse_2" data-name="Ellipse 2" d="M70,3A66.673,66.673,0,0,0,32.542,14.441,67.2,67.2,0,0,0,8.264,43.922a66.908,66.908,0,0,0,6.177,63.537,67.2,67.2,0,0,0,29.481,24.278,66.908,66.908,0,0,0,63.537-6.177,67.2,67.2,0,0,0,24.278-29.481,66.908,66.908,0,0,0-6.177-63.537A67.2,67.2,0,0,0,96.078,8.264,66.578,66.578,0,0,0,70,3m0-3A70,70,0,1,1,0,70,70,70,0,0,1,70,0Z" transform="translate(820 461)" fill="#f78f02"/>
    <path id="Path_2" data-name="Path 2" d="M126,3a112.892,112.892,0,0,0-24.735,2.741A114.238,114.238,0,0,0,78.22,13.6,119.906,119.906,0,0,0,57.341,26.062,127.361,127.361,0,0,0,39.124,42.584a134.538,134.538,0,0,0-15.049,20.05A140.341,140.341,0,0,0,12.7,85.667a144.979,144.979,0,0,0-7.192,25.469A149.629,149.629,0,0,0,3.03,135.467c2.561-.023,7.158-.057,15.453-.112,7.753-.051,24-.154,45.742-.266,32.808-.169,80.2-.371,119.661-.371,20.837,0,37.145.058,48.471.171,6.288.063,11.14.145,14.422.242.824.025,1.55.05,2.184.077a149.612,149.612,0,0,0-2.473-24.072,144.981,144.981,0,0,0-7.192-25.47,140.342,140.342,0,0,0-11.373-23.033,134.535,134.535,0,0,0-15.049-20.05,127.359,127.359,0,0,0-18.217-16.522A119.906,119.906,0,0,0,173.78,13.6a114.237,114.237,0,0,0-23.045-7.864A112.893,112.893,0,0,0,126,3m0-3c69.588,0,126,62.009,126,138.5-.628-1.718-251.139-.081-252,0C0,62.009,56.412,0,126,0ZM0,138.5s0,0,0,0Z" transform="translate(764 600)" fill="#f78f02"/>
  </g>
</svg>
